<svg xmlns="http://www.w3.org/2000/svg" width="800" height="800" viewBox="0 0 800 800">
  <g id="그룹_1" data-name="그룹 1" transform="translate(2915 26.139)">
    <path id="패스_1" data-name="패스 1" d="M-2593.286,99.381c1.161.355,162.063,0,162.063,0-10.111,21.98-22.111,40.647-81.839,66.494,0,0-40.188-10.639-80.224-66.494" fill="#bda888"/>
    <path id="패스_2" data-name="패스 2" d="M-2629.9,139.493l36.612-40.112s29.953,43.98,80.223,66.494c-.437.986-29.477,60.707-29.477,60.707l17.364,35.131-26.652,113.067Z" fill="#fff1db"/>
    <path id="패스_3" data-name="패스 3" d="M-2394.745,139.493l-36.612-40.112s-35.143,44.98-81.731,66.5c-.912-.189,30.984,60.7,30.984,60.7l-17.364,35.131,26.653,113.067Z" fill="#fff1db"/>
    <path id="패스_4" data-name="패스 4" d="M-2513.063,165.875c-1.46,3.295-2.965,6.566-4.491,9.825-1.505,3.271-3.082,6.5-4.627,9.753s-3.149,6.467-4.726,9.7-3.168,6.457-4.8,9.661l-4.855,9.629-4.939,9.982-4.437,9.437-4.938,9.375-2.25,3.938-3.062-3.661-8.159-10.419c-2.705-3.485-5.415-6.966-8.092-10.472q-4.04-5.242-8.023-10.527l-3.98-5.287-3.96-5.3-7.856-10.656c-1.318-1.77-2.589-3.576-3.886-5.361l-3.872-5.372c-1.3-1.784-2.557-3.6-3.834-5.4l-3.812-5.418c-2.513-3.635-15.773-25.994-18.214-29.685,2.988,3.264,16.648,25.311,19.564,28.631l4.331,5.014c1.438,1.675,2.9,3.336,4.31,5.03l4.271,5.06c1.418,1.691,2.861,3.363,4.258,5.07l8.431,10.208,4.183,5.128,4.164,5.146q4.148,5.154,8.264,10.336c2.752,3.448,5.471,6.922,8.2,10.393l8.128,10.442-4.669.4,5.188-9.451,5.241-9.421,5.3-9.388,5.374-9.349c1.779-3.124,3.6-6.225,5.431-9.32s3.631-6.207,5.5-9.28,3.7-6.171,5.6-9.226q2.825-4.6,5.736-9.154" fill="#bda888"/>
    <path id="패스_5" data-name="패스 5" d="M-2513.074,165.871c1.955,3.048,3.865,6.121,5.756,9.205,1.912,3.073,3.751,6.184,5.622,9.278s3.683,6.22,5.522,9.331,3.664,6.23,5.449,9.371l5.393,9.4,5.322,9.439,5.26,9.473,5.206,9.5-4.67-.4,8.128-10.443c2.725-3.47,5.443-6.944,8.195-10.392s5.5-6.9,8.265-10.337l4.163-5.145,4.185-5.128,8.429-10.208c1.4-1.707,2.841-3.379,4.258-5.07l4.273-5.06c1.415-1.694,2.872-3.355,4.308-5.03l4.332-5.014c2.915-3.32,18.19-25.771,21.178-29.035-2.44,3.691-17.315,26.454-19.829,30.089l-3.812,5.418c-1.277,1.8-2.534,3.618-3.834,5.4l-3.872,5.372c-1.3,1.785-2.568,3.591-3.885,5.361l-7.857,10.656-3.96,5.3-3.979,5.287q-3.994,5.277-8.023,10.527c-2.677,3.506-5.387,6.987-8.092,10.472l-8.159,10.419-2.664,3.4-2.007-3.8-5.06-9.58-5.007-9.608-4.944-9.642-4.873-9.68c-1.638-3.22-3.234-6.463-4.819-9.711s-3.2-6.479-4.743-9.75-3.135-6.515-4.645-9.8q-2.3-4.915-4.51-9.876" fill="#bda888"/>
    <path id="패스_6" data-name="패스 6" d="M-2637.974,144.877l-3.4,11.961-3.457,11.945c-2.294,7.966-4.669,15.906-7.007,23.859s-4.743,15.883-7.116,23.824-4.764,15.877-7.2,23.8l-.859-2.371,17.225,10.7c5.75,3.553,11.462,7.166,17.189,10.754l17.173,10.78q8.6,5.376,17.147,10.821l3.27,2.082-3.07,2.381-18.81,14.582c-6.275,4.854-12.526,9.739-18.83,14.556l.559-3.873,15.5,21.515,7.752,10.758,7.713,10.785,15.4,21.591c5.149,7.185,10.221,14.427,15.327,21.643s10.218,14.43,15.267,21.686l15.185,21.746,15.079,21.823,7.5,10.942,7.444,10.98-8.111-10.5-8.058-10.535L-2545.2,441.98l-15.925-21.209c-5.321-7.061-10.564-14.178-15.843-21.27-5.264-7.1-10.563-14.179-15.784-21.311l-15.711-21.365-7.842-10.693-7.8-10.72-15.607-21.44-1.6-2.193,2.156-1.68c6.259-4.875,12.571-9.681,18.859-14.519l18.879-14.492.2,4.463q-8.544-5.459-17.043-10.985l-17.016-11.026c-5.669-3.68-11.353-7.336-17-11.051l-16.965-11.107-1.349-.883.49-1.488q3.891-11.807,7.88-23.582c2.652-7.852,5.264-15.717,7.96-23.556s5.338-15.694,8.067-23.521l4.082-11.746Z" fill="#161b25"/>
    <path id="패스_7" data-name="패스 7" d="M-2382.766,145.1l4.14,11.727,4.085,11.745c2.735,7.826,5.382,15.679,8.074,23.519s5.306,15.7,7.964,23.555l3.966,11.782,3.913,11.8.5,1.5-1.365.894-16.962,11.11-17,11.045-17.015,11.028c-5.664,3.688-11.36,7.326-17.049,10.975l.343-4.357,16.457,14.5c5.481,4.836,10.983,9.651,16.434,14.522l1.91,1.707-1.5,2.051-15.661,21.4-7.831,10.7-7.869,10.67-15.766,21.32c-5.239,7.117-10.556,14.18-15.838,21.267-5.3,7.076-10.557,14.179-15.9,21.225l-15.979,21.163-16.085,21.087-8.086,10.514-8.138,10.474,7.472-10.959,7.525-10.921,15.134-21.78,15.24-21.7c5.068-7.243,10.215-14.43,15.323-21.642,5.125-7.2,10.214-14.429,15.382-21.6l15.454-21.547,7.74-10.763,7.78-10.736,15.558-21.471.408,3.758c-5.5-4.82-10.942-9.7-16.408-14.552l-16.386-14.577-2.716-2.417,3.058-1.94c5.708-3.619,11.408-7.251,17.14-10.831l17.176-10.778,17.184-10.761,17.227-10.7-.866,2.394-3.625-11.891-3.573-11.908c-2.368-7.942-4.785-15.869-7.112-23.825s-4.711-15.894-7-23.861l-3.453-11.946Z" fill="#161b25"/>
    <rect id="사각형_1" data-name="사각형 1" width="800" height="800" transform="translate(-2915 -26.139)" fill="none"/>
  </g>
</svg>
