<svg xmlns="http://www.w3.org/2000/svg" width="341.628" height="970.017" viewBox="0 0 341.628 970.017">
  <g id="그룹_3" data-name="그룹 3" transform="translate(3260.952 23.893)">
    <path id="패스_11" data-name="패스 11" d="M-3066,499.035c-.868,2.979-1.977,5.911-2.567,8.946a424.83,424.83,0,0,0-7.577,93.913c.761,26.882-1.748,53.971-4.406,80.81-2.943,29.729-7.623,59.29-11.7,88.9-1.783,12.941-4.223,25.793-5.791,38.756-.491,4.067.93,8.355,1.408,12.549,1.342,11.729-1.826,16.717-12.228,21.99a13.129,13.129,0,0,0-6.174,8.132c-5.036,27.247-33.487,37.954-55.387,20.522-5.256-4.18-6.975-8.7-3.029-15.338,7.395-12.442,14.446-25.151,20.615-38.231,2.639-5.6,3.28-12.355,3.821-18.67,1.107-12.969-.254-26.411,2.654-38.9,4.588-19.718,6.051-38.7.049-58.313-7.275-23.767-1.557-47.727.329-71.6,1.684-21.316,1.4-43.011,5.487-63.854,4.576-23.366.192-45.635-1.668-68.453-1.284-15.748-1.682-31.411-7.79-46.263a10.826,10.826,0,0,1-.571-3.888c-.591-41.052-14.768-81.794-.947-122.428-10.1-6.03-18.295-6.636-26.435-.519-5.736,4.312-10.039,4.114-14.775-2.328-12.846-17.471-27.22-33.859-39.427-51.743-10.675-15.637-19.3-32.684-28.584-49.245-.689-1.228.115-3.857,1.033-5.333,14.543-23.414,28.857-46.982,44.056-69.965,5.386-8.143,14.4-14.007,19.221-22.372,5.382-9.33,13.7-17.077,13.581-30.008-.118-12.274,6.069-23.43,19.349-27.815,19.349-6.39,38.813-12.432,58.167-18.808,6.521-2.147,12.858-4.857,18.627-7.06-1.374,18.169-3.753,36.615-3.89,55.078-.135,18.335,2.024,36.68,12.083,53.67.932-7.793,1.468-15.661,2.913-23.357,1.26-6.719,2.224-14.05,5.663-19.678,6.192-10.14,5.622-18.921-1.1-28.067a33.062,33.062,0,0,1-2.569-5.057c10.614-10.231,27.976-7.464,36.258,5.8a63.135,63.135,0,0,1-4.284,5.033c-7.873,7.6-9.106,15.744-4.184,25.85,3.489,7.159,4.9,15.332,7.549,24.093,14.734-28.873,24.724-58.485,22.18-94.335,4.568,4.558,8.528,7.052,10.384,10.633,5.669,10.94,15.279,15.79,26.262,19.236,9.716,3.051,19.45,6.127,28.933,9.821,11.65,4.54,16.883,13.92,18.089,26.021,2.637,26.482,5.61,52.931,8.042,79.431,2.074,22.592,4.006,45.217,5,67.871.207,4.716-3.46,9.968-6.3,14.357-3.526,5.459-9,9.791-11.909,15.488-4.64,9.07-10.859,15.593-20.7,18.323-6.319,1.751-8.377,5.41-8.542,12.184-.943,39.138-1.189,78.362-4.19,117.363-3.4,44.12-9.989,87.985-14.124,132.059-1.945,20.744-5.663,40.345-13.069,60.183-7.938,21.263-10.388,44.661-14.4,67.277q-6.357,35.849-10.841,72.017c-.454,3.593,2.823,8.6,5.792,11.493,6.808,6.636,15.3,11.663,21.51,18.747,3.621,4.13,6.632,11.669,5.3,16.356-1.048,3.669-9.231,7.527-14.189,7.46-18.977-.263-37.847-2.339-49.309-20.876-3.451-5.582-8.242-7.359-14.771-7.8-15.795-1.06-19.595-5.731-16.861-21.15,5.342-30.123,12.16-60,16.774-90.231,4.216-27.621,6.36-55.56,9.292-83.371.233-2.219-.684-4.536-.761-6.818-.408-12.071-.9-24.147-1.018-36.222-.17-17.271-.043-34.543-.043-51.816Zm-100.874-312.612-4.662-.7c-5.855,10.776-11.74,21.536-17.554,32.336-2.171,4.033-4.173,8.159-7.3,14.3,1.765,1.319,5.188,3.053,7.472,5.75,5.9,6.967,13.135,13.613,16.441,21.764,4.583,11.307,11.263,19.943,21.063,26.488,2.278,1.521,5.395,1.789,9.383,3.025C-3150.629,253.741-3158.75,220.082-3166.873,186.422Zm134.139,79.707-2.039,2.872c13.355,9.181,19.037,34.838,5.495,46.555,7.873-.707,16.17-.761,15.618-9.72-.608-9.859-3.489-19.89-7.208-29.109C-3022.647,272.317-3028.646,269.607-3032.734,266.129Z" transform="translate(0 64.091)" fill="#2b2e42"/>
    <path id="패스_12" data-name="패스 12" d="M-3172.426-17.2c10.842-2.042,20.431-3.524,29.862-5.691,23.036-5.295,57.018,11.016,66.019,32.673,2.159,5.192,3.734,12.224,2,17.144-5.378,15.213-12.876,29.664-18.758,44.72-3.052,7.819-4.094,16.4-6.685,24.428-1.6,4.972-3.388,10.564-6.886,14.1-6.881,6.967-14.852,12.909-22.691,18.858-4.574,3.471-8.686,3.215-12.214-2.518-4.275-6.947-9.437-13.359-14.383-19.874-1.083-1.428-2.883-3.3-4.344-3.294-10.354.061-11.865-6.044-13.537-14.894-2.565-13.565-6.537-26.163-1.409-40.424,3.5-9.732,3.364-20.934,3.833-31.526a29.082,29.082,0,0,0-3.514-14c-3.065-5.873-5.111-10.542,1.977-14.973C-3171.969-13.211-3172.488-16.689-3172.426-17.2Z" transform="translate(81.409)" fill="#2b2e42"/>
  </g>
</svg>
